<svg height="300" viewBox="0 0 56 56" width="600" xmlns="http://www.w3.org/2000/svg"><g id="Page-1" fill="none" fill-rule="evenodd"><g id="020---Listen-On-Mobile" fill="rgb(0,0,0)" fill-rule="nonzero"><path id="Shape" d="m26 37h4c.5522847 0 1-.4477153 1-1v-1h-1c-.5522847 0-1-.4477153-1-1s.4477153-1 1-1h1v-2h-1c-.5522847 0-1-.4477153-1-1s.4477153-1 1-1h1v-2h-1c-.5522847 0-1-.4477153-1-1s.4477153-1 1-1h1v-1c0-.5522847-.4477153-1-1-1h-4c-.5522847 0-1 .4477153-1 1v12c0 .5522847.4477153 1 1 1z"/><path id="Shape" d="m22.828 13.414c.3756652.3740806.8838501.5846863 1.414.586h7.516c.5301499-.0013137 1.0383348-.2119194 1.414-.586l1.414-1.414h-13.172z"/><path id="Shape" d="m19 54c-1.0854693-.0036768-2.1396111-.3641933-3-1.026v.026c0 1.6568542 1.3431458 3 3 3h18c1.6568542 0 3-1.3431458 3-3v-.026c-.8603889.6618067-1.9145307 1.0223232-3 1.026z"/><path id="Shape" d="m0 29v12c0 1.6568542 1.34314575 3 3 3h3v-18h-3c-1.65685425 0-3 1.3431458-3 3z"/><path id="Shape" d="m28 2c12.1445532.01377716 21.9862228 9.8554468 22 22h2c-.0000003-13.2548338-10.7451662-23.99999949-24-23.99999949s-23.99999972 10.74516569-24 23.99999949h2c.01377716-12.1445532 9.8554468-21.98622284 22-22z"/><path id="Shape" d="m12 24h-3c-.55228475 0-1 .4477153-1 1v20c0 .5522847.44771525 1 1 1h3c1.1045695 0 2-.8954305 2-2v-18c0-1.1045695-.8954305-2-2-2z"/><path id="Shape" d="m53 26h-3v18h3c1.6568542 0 3-1.3431458 3-3v-12c0-1.6568542-1.3431458-3-3-3z"/><path id="Shape" d="m47 24h-3c-1.1045695 0-2 .8954305-2 2v18c0 1.1045695.8954305 2 2 2h3c.5522847 0 1-.4477153 1-1v-20c0-.5522847-.4477153-1-1-1z"/><path id="Shape" d="m37.376 12.038-2.79 2.79c-.7513303.7481613-1.7677002 1.1693725-2.828 1.172h-7.516c-1.0602998-.0026275-2.0766697-.4238387-2.828-1.172l-2.79-2.79c-1.4954721.1862318-2.619444 1.4549836-2.624 2.962v34c0 1.6568542 1.3431458 3 3 3h18c1.6568542 0 3-1.3431458 3-3v-34c-.004556-1.5070164-1.1285279-2.7757682-2.624-2.962zm-14.376 11.962c0-1.6568542 1.3431458-3 3-3h4c1.6568542 0 3 1.3431458 3 3v12c0 1.6568542-1.3431458 3-3 3h-4c-1.6568542 0-3-1.3431458-3-3zm14 12c-.0044086 3.8641657-3.1358343 6.9955914-7 7h-1v3h1c.5522847 0 1 .4477153 1 1s-.4477153 1-1 1h-4c-.5522847 0-1-.4477153-1-1s.4477153-1 1-1h1v-3h-1c-3.8641657-.0044086-6.9955914-3.1358343-7-7v-1c0-.5522847.4477153-1 1-1s1 .4477153 1 1v1c.0033061 2.7600532 2.2399468 4.9966939 5 5h4c2.7600532-.0033061 4.9966939-2.2399468 5-5v-1c0-.5522847.4477153-1 1-1s1 .4477153 1 1z"/></g></g></svg>